<svg xmlns="http://www.w3.org/2000/svg" xmlns:xlink="http://www.w3.org/1999/xlink" width="1813.276" height="2010.986" viewBox="0 0 1813.276 2010.986"><defs><radialGradient id="a" cx="0.5" cy="0.5" r="0.5" gradientUnits="objectBoundingBox"><stop offset="0" stop-color="#10577d"/><stop offset="1" stop-color="#01608e"/></radialGradient><linearGradient id="b" x1="0.5" x2="0.5" y2="1" gradientUnits="objectBoundingBox"><stop offset="0" stop-color="#0e8bc7" stop-opacity="0"/><stop offset="1" stop-color="#056a9a"/></linearGradient></defs><g transform="translate(-4295.5 -11047.5)"><g transform="translate(4295.5 11047.5)"><path d="M1786.513,1388.865V596.9A198.021,198.021,0,0,0,1687.5,425.609L994.549,29.533a198.022,198.022,0,0,0-198.022,0L103.511,425.547A198.022,198.022,0,0,0,4.5,596.9v791.964a198.022,198.022,0,0,0,99.011,171.292l693.047,396.013a198.021,198.021,0,0,0,198.022,0L1687.6,1560.157A198.022,198.022,0,0,0,1786.513,1388.865Z" transform="translate(11.132 12.641)" fill="url(#a)"/><path d="M910.638,2013.489a213.94,213.94,0,0,1-106.827-28.637L110.89,1588.87A214.279,214.279,0,0,1,4,1404.041v-792A214.279,214.279,0,0,1,110.827,427.216L803.936,31.109a213.654,213.654,0,0,1,213.591,0l692.953,396.013a214.279,214.279,0,0,1,106.8,184.923v791.964a214.278,214.278,0,0,1-106.827,184.829l-693.016,396.045A213.877,213.877,0,0,1,910.638,2013.489Zm0-1979.816a182.609,182.609,0,0,0-91.2,24.448L126.4,454.259A182.891,182.891,0,0,0,35.263,612.045v791.964a182.891,182.891,0,0,0,91.2,157.755l692.984,395.982a182.391,182.391,0,0,0,182.453,0L1695.005,1561.7a182.892,182.892,0,0,0,91.008-157.693V612.045a182.891,182.891,0,0,0-91.2-157.755L1001.927,58.246a182.7,182.7,0,0,0-91.289-24.573Z" transform="translate(-4 -2.503)" fill="#fff"/><path d="M5.123,12.3l857.492,495.65L1721.983,10.521" transform="translate(44.054 498.51)" fill="url(#b)"/><path d="M877.749,538.415a15.631,15.631,0,0,1-7.815-2.094L12.441,40.67A15.632,15.632,0,1,1,28.073,13.6L877.749,504.744,1729.27,11.814A15.632,15.632,0,0,1,1744.9,38.857L885.534,536.32a15.632,15.632,0,0,1-7.785,2.095Z" transform="translate(28.92 483.679)" fill="#fff"/><path d="M17.965,997.138,19.059,18" transform="translate(887.61 987.493)" fill="#0e8bc7"/><path d="M33.1,1027.9a15.632,15.632,0,0,1-15.632-15.632L18.559,33.132a15.632,15.632,0,0,1,31.263,0L48.728,1012.3A15.632,15.632,0,0,1,33.1,1027.9Z" transform="translate(872.479 972.361)" fill="#fff"/></g><path d="M209.735,161.09l22.228-80.785L99.438,89.216ZM58.514,30.722A128.68,128.68,0,0,0,17.653,65.831,76.22,76.22,0,0,0,2.427,106.473,72.469,72.469,0,0,0,13.244,147.9a117.926,117.926,0,0,0,37.391,37.266,203.4,203.4,0,0,0,57.931,25.386,276.836,276.836,0,0,0,67,9.379,281.776,281.776,0,0,0,67.654-6.628,214.342,214.342,0,0,0,60.119-23.01,126.929,126.929,0,0,0,40.642-35.547,75.439,75.439,0,0,0,14.537-40.924,73.063,73.063,0,0,0-11.536-41.268,119.614,119.614,0,0,0-37.516-36.672A204.869,204.869,0,0,0,251.784,10.87a277.147,277.147,0,0,0-66.31-9.379,282,282,0,0,0-67,6.565A215.715,215.715,0,0,0,58.514,30.722ZM278.7,174.127a171.292,171.292,0,0,1-48.052,18.352,225.845,225.845,0,0,1-54.148,5.346,221.969,221.969,0,0,1-53.554-7.534,162.57,162.57,0,0,1-46.3-20.227,94.227,94.227,0,0,1-29.825-29.638,58.087,58.087,0,0,1-8.691-33.139,61,61,0,0,1,12.1-32.608A102.544,102.544,0,0,1,82.837,46.541a172.137,172.137,0,0,1,47.833-18.07,226,226,0,0,1,53.679-5.252A221.969,221.969,0,0,1,237.5,30.628a163.508,163.508,0,0,1,46.145,19.946,95.29,95.29,0,0,1,30.044,29.356,58.494,58.494,0,0,1,9.16,33.045,60.5,60.5,0,0,1-11.661,32.733A101.418,101.418,0,0,1,278.7,174.127Z" transform="translate(5021.657 11428.839)" fill="#fff"/><path d="M36.2,161.718l-4.908,2.814L.656,144.429l18.383-10.6,3.939,2.595L9.472,144.211l10,6.565,12.505-7.284,3.939,2.595-12.505,7.284Zm23.541-13.6L54.9,150.932,22.29,129.517l4.752-2.782Zm5.6-31.764,23.166,15.163-3.877,2.251-3.752-1.594h-.219A3.811,3.811,0,0,1,80,135.8a11.906,11.906,0,0,1-3.6,3.126,17.191,17.191,0,0,1-8.629,2.5,16.009,16.009,0,0,1-8.722-2.876L43.893,128.61,48.77,125.8l14.475,9.379a10.869,10.869,0,0,0,5.252,1.938,9.021,9.021,0,0,0,5.1-1.313q3.783-2.188,3.126-4.408t-4.564-4.783l-11.724-7.66Zm36.3,3.533a11.1,11.1,0,0,0,3.126-2.5l3.439,2.251a7.749,7.749,0,0,1-1.5,1.594,16.4,16.4,0,0,1-2.407,1.688,15.5,15.5,0,0,1-4.314,1.688,11.457,11.457,0,0,1-4.908,0,15.043,15.043,0,0,1-5.44-2.313l-12.818-8.379-3.408,1.97-2.063-1.344,1.876-3.126-3.126-4.158,2.97-1.719,5.19,3.408,7-4.033,3.47,2.282-7,4.064,12.724,8.316a6.766,6.766,0,0,0,3.783,1.251,6.454,6.454,0,0,0,3.439-.938Zm17.445-10.067a11.1,11.1,0,0,0,3.126-2.5l3.439,2.251a8.974,8.974,0,0,1-1.5,1.594,13.749,13.749,0,0,1-2.407,1.688,15.5,15.5,0,0,1-4.314,1.688,11.457,11.457,0,0,1-4.908,0,15.043,15.043,0,0,1-5.44-2.313l-12.818-8.347-3.408,1.97-2.063-1.344,1.876-3.126-3.126-4.158,2.97-1.719,5.19,3.376,7-4.033,3.47,2.282-7,4.033,12.724,8.316a6.766,6.766,0,0,0,3.783,1.251,6.624,6.624,0,0,0,3.439-.907Zm-2.095-23.791A18.721,18.721,0,0,1,127.4,83.5,20.5,20.5,0,0,1,137.84,86.9l2.5,1.626L123.9,97.909a14.869,14.869,0,0,0,7.441,2.407,13.4,13.4,0,0,0,7.191-1.813,20.992,20.992,0,0,0,3.783-2.689,16.059,16.059,0,0,0,2.564-3.126l3.783,2.47a14.573,14.573,0,0,1-2.532,2.939,23.735,23.735,0,0,1-4.1,2.814,22.324,22.324,0,0,1-7.6,2.751,24.744,24.744,0,0,1-8.222,0,20.99,20.99,0,0,1-8.035-3.314,15.072,15.072,0,0,1-5.221-5.127,5.539,5.539,0,0,1-.281-4.94,9.6,9.6,0,0,1,4.346-4.252Zm3.533,2.282q-2.595,1.5-2.564,3.439t2.657,4l11.536-6.659a13.189,13.189,0,0,0-5.784-2.063,9.49,9.49,0,0,0-5.815,1.282Zm25.011-18.758a19.574,19.574,0,0,1,2.907-1.407l3.752,3.126a16.432,16.432,0,0,0-2.751,1.219,6.03,6.03,0,0,0-2.595,2.564,3.577,3.577,0,0,0,0,3.126,7.082,7.082,0,0,0,2.907,3.126l12.224,7.941-4.815,2.782-23.166-15.1,3.814-2.188,4.752,2.313h.188a5.914,5.914,0,0,1-.156-3.845,6.7,6.7,0,0,1,2.876-3.6Zm45.457,2.72L155.035,61.05h-.188q1,.531,2.5,1.438t3.126,1.97q1.751,1.063,3.345,2.126l17.445,11.349L176.825,80.5,146.156,60.55l6.972-4.033,33.921,10.63h.188L172.167,45.637l6.972-4.033,30.669,19.915-4.752,2.751-17.57-11.411q-1.5-.969-3.126-2.063t-2.876-2.032q-1.344-.969-2.251-1.594h-.188L195.02,69.9Zm12.818-36.328a18.435,18.435,0,0,1,8.754-2.72,14.467,14.467,0,0,1,8.285,2.564L236.476,45.95l-3.376,1.97-4.189-1.532-.188.281a5.79,5.79,0,0,1-.563,3.72,10.163,10.163,0,0,1-3.939,3.345,15.4,15.4,0,0,1-7.159,2.063,12.608,12.608,0,0,1-7.472-2.188q-3.564-2.313-2.564-5.127t6.628-6.253l4.1-2.626-1.282-.844A8.406,8.406,0,0,0,211.5,37.29a10.981,10.981,0,0,0-4.5,1.313,13.8,13.8,0,0,0-3.126,2.407,11.651,11.651,0,0,0-1.907,2.532l-4.846-1.251a13.353,13.353,0,0,1,2.532-3.126,29.5,29.5,0,0,1,4.1-3.158Zm16.851,5.534-3.126,1.938q-4,2.5-4.439,4.189t1.563,3.126a6.294,6.294,0,0,0,3.752,1.063,8.119,8.119,0,0,0,3.752-1.157q2.814-1.626,3.126-3.689t-2.626-4Zm28.762-6.972a12.113,12.113,0,0,0,3.126-2.47l3.439,2.22a8.318,8.318,0,0,1-1.5,1.563,27.569,27.569,0,0,1-2.345,1.782,15.559,15.559,0,0,1-4.283,1.688,11.31,11.31,0,0,1-4.877,0,15.027,15.027,0,0,1-5.409-2.282l-12.818-8.285-3.564,2-2.063-1.344,1.845-3.126-3.126-4.127,2.939-1.688,5.19,3.376,6.94-4,3.47,2.251-6.94,4,12.724,8.254a7.18,7.18,0,0,0,3.752,1.251,6,6,0,0,0,3.408-.969ZM231.692,9.5a5.74,5.74,0,0,1,2.5-.719,4.6,4.6,0,0,1,2.845.844q1.376.875,1.188,1.751a2.952,2.952,0,0,1-1.407,1.688,5.479,5.479,0,0,1-2.564.719,4.78,4.78,0,0,1-2.814-.813q-1.407-.907-1.188-1.782a2.491,2.491,0,0,1,1.344-1.5ZM242.76,14.03l23.166,15.006-4.783,2.751L237.976,16.781Zm40.861,5.284a21.2,21.2,0,0,1-10.973,2.845,22.575,22.575,0,0,1-12.068-4.064q-4.314-2.689-5.5-5.346a5,5,0,0,1,.188-4.908,12.442,12.442,0,0,1,4.689-4.252A28.717,28.717,0,0,1,268.02.524l2.251,3.126q-1.688.563-3.439,1.125a19.452,19.452,0,0,0-3.064,1.251q-6.6,3.783,1.657,9.129a17.483,17.483,0,0,0,7.628,2.939,11.214,11.214,0,0,0,6.847-1.438,14.861,14.861,0,0,0,3.126-2.345,11.6,11.6,0,0,0,1.782-2.282l3.97,2.564a7.736,7.736,0,0,1-1.751,2.345A17.548,17.548,0,0,1,283.621,19.313Z" transform="translate(5170.257 11810.475)" fill="#fff"/><path d="M25.078,438.061l-3.47-8.347L8.821,437.123l-3.6,12.505-5.19,3.126L12.791,409.33l5.19-3.126,12.193,28.825Zm-4.846-12.255-3.283-8.191q-.188-.438-.5-1.376t-.625-1.938q-.313-1.032-.5-1.657-.375,1.782-.844,3.814t-.75,3.126l-3.408,11.849Zm26.761-28.137q4.346-2.532,6.659-1.5t2.251,6.253v17.664L51.058,422.9V405.985q0-6.253-5.1-3.376a12.269,12.269,0,0,0-5.284,5.5,19.146,19.146,0,0,0-1.5,7.941v13.693l-4.908,2.845.156-27.168,3.908-2.251.688,3.126.281-.156a16.985,16.985,0,0,1,3.345-5.033,15.568,15.568,0,0,1,4.377-3.314Zm38.36-22.2q4.908-2.845,7.691-1.157t2.751,7.347v2.908L79.07,394.261q0,4.127,1.97,5.221t5.377-.907a29.65,29.65,0,0,0,4.283-2.939,47.18,47.18,0,0,0,3.877-3.658v4.439A27.176,27.176,0,0,1,90.7,400.17a50.205,50.205,0,0,1-4.533,3.126,13.233,13.233,0,0,1-6.253,2.126,5.274,5.274,0,0,1-4.377-2.126q-1.532-2.188-1.5-6.753a25.666,25.666,0,0,1,1.469-8.566,24.255,24.255,0,0,1,3.97-7.128,23.5,23.5,0,0,1,5.909-5.221Zm0,4.127a11.732,11.732,0,0,0-4.252,4.314,14.554,14.554,0,0,0-1.907,6.253l11.724-6.784q0-3.126-1.376-4.346t-4.221.719Zm26.293-19.321q4.658-2.689,6.972-1.813t2.282,5.69l-.063,18.508-3.47,2-.938-3.126h-.188a27.951,27.951,0,0,1-3.408,5.221,18.185,18.185,0,0,1-4.908,3.877q-3.376,1.938-5.565,1.251t-2.157-4.94a12.8,12.8,0,0,1,2.939-7.972,33.383,33.383,0,0,1,8.816-7.441l4.252-2.595v-1.5q0-3.126-1.219-3.47a5.322,5.322,0,0,0-3.5.782,20.044,20.044,0,0,0-3.658,2.72q-1.751,1.626-3.376,3.408l-1.532-3.126a39.17,39.17,0,0,1,4.064-4.033,26.848,26.848,0,0,1,4.658-3.283Zm4.346,12.005-3.314,2.032a20.934,20.934,0,0,0-5.909,4.971,7.953,7.953,0,0,0-1.657,4.658q0,2.126,1.125,2.407a4.743,4.743,0,0,0,3.126-.782,14.579,14.579,0,0,0,4.783-4.533,11.157,11.157,0,0,0,1.97-6.253Zm28.794-11.317a12.525,12.525,0,0,1-2.689,7.628,23.288,23.288,0,0,1-7.441,6.253,27.711,27.711,0,0,1-4.471,2.188,11.621,11.621,0,0,1-3.408.719v-4.689a13.474,13.474,0,0,0,3.783-.657,22.16,22.16,0,0,0,4.252-1.782,14.642,14.642,0,0,0,4-3.126,4.918,4.918,0,0,0,1.251-3.126,1.947,1.947,0,0,0-.438-1.376,2.128,2.128,0,0,0-1.751-.344,26.461,26.461,0,0,0-3.689.375,19.6,19.6,0,0,1-4,.281,3.056,3.056,0,0,1-2.5-1.063,4.7,4.7,0,0,1-.844-3.126,11.089,11.089,0,0,1,2.657-6.909,24.385,24.385,0,0,1,6.909-5.878,22.375,22.375,0,0,1,4.252-1.97,18.278,18.278,0,0,1,3.877-.844l-1.657,5a25.542,25.542,0,0,0-3.314.625,12.859,12.859,0,0,0-3.439,1.469q-4.5,2.626-4.533,5.471a1.582,1.582,0,0,0,.5,1.344,3.122,3.122,0,0,0,1.845.344,22.9,22.9,0,0,0,3.658-.406,14.708,14.708,0,0,1,3.877-.25,3.006,3.006,0,0,1,2.47,1.032,4.584,4.584,0,0,1,.844,2.97Zm2.22-20.665,5.252-3.126,5,12.505q.594,1.407,1.032,2.751a15.3,15.3,0,0,1,.625,2.845h.188q.25-1.438.75-3.47t1.125-4.189l5.033-18.164,5.252-3.126-10.942,36.922a31.963,31.963,0,0,1-3.627,8.222,16.7,16.7,0,0,1-5.846,5.6q-1.157.657-1.97,1.032a11.156,11.156,0,0,1-1.438.563V374.44a10.821,10.821,0,0,0,1.188-.5q.719-.344,1.532-.782a9.442,9.442,0,0,0,3.408-3.314,20.122,20.122,0,0,0,2.063-4.658l1.032-3.5Zm59.9-7.785-3.376-11.474q-.313-1.126-.688-2.564t-.719-2.72q-.313-1.344-.469-2.095h-.188a10.315,10.315,0,0,1-.5,2.657,24.263,24.263,0,0,0-.75,3.627q-.406,1.907-.782,3.47L195.62,339.05l-5.409,3.126-6.534-23.135,4.971-2.876,3.126,11.88q.469,1.813.907,3.97a34.513,34.513,0,0,1,.563,3.5h.188a10.515,10.515,0,0,1,.406-2.5,23.581,23.581,0,0,0,.594-3.126q.313-1.594.594-2.657l4.1-16.914,5.315-3.126,3.689,12.505q.25.844.563,2.032t.531,2.407a16.707,16.707,0,0,1,.313,2.063h.188a12.113,12.113,0,0,1,.344-2.407q.344-1.563.594-3.345.375-1.813.688-3.439l3.47-15.632,4.908-2.845L212.5,329.639Zm26.668-42.8q4.627-2.689,6.909-1.782t2.282,5.94l-.219,18.352-3.439,2L238.2,311.1h-.188a26.965,26.965,0,0,1-3.408,5.19,18.7,18.7,0,0,1-4.877,3.845q-3.345,1.938-5.5,1.219t-2.126-4.94a12.889,12.889,0,0,1,2.939-7.972,32.052,32.052,0,0,1,8.754-7.378l4.221-2.595V297q0-2.97-1.188-3.47t-3.47.782A21.442,21.442,0,0,0,229.728,297a47.407,47.407,0,0,0-3.376,3.408l-1.5-3.126a43.112,43.112,0,0,1,4.033-4,29.532,29.532,0,0,1,4.658-3.376Zm4.252,12.005-3.283,2a20.17,20.17,0,0,0-5.846,4.94,8.249,8.249,0,0,0-1.657,4.658q0,2.126,1.094,2.407a4.293,4.293,0,0,0,2.97-.782,14.4,14.4,0,0,0,4.752-4.5,11.384,11.384,0,0,0,1.97-6.253Zm8.691-19.008,5.221-3.126,4.94,12.505q.563,1.407,1,2.751a13.773,13.773,0,0,1,.594,2.845h.188q.25-1.438.75-3.47t1.125-4.189l5.033-18.133,5.221-3.126-10.973,36.859a31.421,31.421,0,0,1-3.627,8.191,17.165,17.165,0,0,1-5.815,5.6,19.639,19.639,0,0,1-1.97,1q-.813.344-1.407.531v-4.221a10.812,10.812,0,0,0,1.188-.5q.719-.344,1.5-.782a9.877,9.877,0,0,0,3.408-3.283,17.863,17.863,0,0,0,2.063-4.658l1.032-3.5Zm48.239-4.846a18.226,18.226,0,0,0,3.689-2.782v4a20.3,20.3,0,0,1-2.095,1.907,18.786,18.786,0,0,1-2.657,1.813,10.115,10.115,0,0,1-3.658,1.376,2.639,2.639,0,0,1-2.626-1.063q-.969-1.282-.938-4.6l.063-14.788-3.439,1.97V263.33l3.627-4.1,1.782-6.722,2.97-1.719v6.1l7.034-4.064v4.064l-7.034,4.064-.219,14.881q0,2.22.938,2.689a2.807,2.807,0,0,0,2.564-.438Zm30.388-27.262a23.407,23.407,0,0,1-3.283,12.224,23.845,23.845,0,0,1-8.535,8.566,10.661,10.661,0,0,1-5.878,1.782,4.888,4.888,0,0,1-4-2.407q-1.282-2.095-1.282-6.6a23.965,23.965,0,0,1,3.126-12.161,22.673,22.673,0,0,1,8.535-8.535,11.15,11.15,0,0,1,5.909-1.813,4.769,4.769,0,0,1,3.97,2.407q1.5,2.22,1.438,6.753Zm-18.07,10.473q0,4.564,1.469,6.253t4.94-.344a12.092,12.092,0,0,0,5.033-5.44,19.386,19.386,0,0,0,1.688-8.035q0-4.627-1.469-6.253t-5,.438a12.011,12.011,0,0,0-5,5.346,20.165,20.165,0,0,0-1.688,8.253Zm52.179-24.354a12.393,12.393,0,0,1-2.72,7.6,23.954,23.954,0,0,1-7.378,6.253,27.98,27.98,0,0,1-4.439,2.157,11.571,11.571,0,0,1-3.376.719v-4.658a13.09,13.09,0,0,0,3.72-.657,22.856,22.856,0,0,0,4.189-1.751,14.212,14.212,0,0,0,3.939-3.126,5.159,5.159,0,0,0,1.251-3.126,1.947,1.947,0,0,0-.438-1.376,2.48,2.48,0,0,0-1.688-.532,27.433,27.433,0,0,0-3.627.344,20.04,20.04,0,0,1-3.939.25,2.93,2.93,0,0,1-2.439-1.063,4.825,4.825,0,0,1-.813-3.126,11.053,11.053,0,0,1,2.657-6.878,23.972,23.972,0,0,1,6.815-5.815A23.028,23.028,0,0,1,355.157,220a16.462,16.462,0,0,1,3.814-.813l-1.657,5a16.614,16.614,0,0,0-3.126.625,19.434,19.434,0,0,0-3.408,1.438q-4.471,2.564-4.5,5.44a1.582,1.582,0,0,0,.5,1.344,2.975,2.975,0,0,0,1.782.344,24.058,24.058,0,0,0,3.6-.375,16.236,16.236,0,0,1,3.814-.25,2.93,2.93,0,0,1,2.439,1.063,4.948,4.948,0,0,1,.844,3.126ZM374.884,207.9q4.815-2.782,7.534-1.094t2.626,7.347v2.908l-16.413,9.379q0,4.127,1.876,5.221t5.252-.844a31.452,31.452,0,0,0,4.189-2.907,43.015,43.015,0,0,0,3.814-3.627v4.408a34.323,34.323,0,0,1-3.752,3.533,50.04,50.04,0,0,1-4.439,3.126,12.787,12.787,0,0,1-6.253,2.063,4.692,4.692,0,0,1-4.158-2.157q-1.469-2.188-1.407-6.753a25.931,25.931,0,0,1,1.5-8.535,24.316,24.316,0,0,1,3.939-7.065,17.85,17.85,0,0,1,5.721-4.752Zm0,4.127a11.4,11.4,0,0,0-4.189,4.252,15.292,15.292,0,0,0-1.938,6.253l11.536-6.659q0-3.126-1.313-4.346t-4.127.719Zm24.792,5.065a19.468,19.468,0,0,0,3.689-2.782v4a18.27,18.27,0,0,1-2.095,1.876,21.653,21.653,0,0,1-2.626,1.782,10.128,10.128,0,0,1-3.627,1.376,2.606,2.606,0,0,1-2.595-1.063q-.969-1.282-.907-4.6l.25-14.944-3.408,1.97v-2.157l3.627-4.1,1.782-6.69,2.939-1.719v6.065l6.972-4.033v4.064l-6.972,4.033-.25,14.85q0,2.22.907,2.689a2.3,2.3,0,0,0,2.282-.375Zm29.982-40.33-.5,27.012-3.877,2.564-.625-3.126h-.219a17,17,0,0,1-3.314,4.971,20.138,20.138,0,0,1-4.408,3.533q-4.314,2.5-6.534,1.469t-2.126-6.253l.313-17.7,4.846-2.814-.313,16.913q0,3.126,1.125,4.033t3.72-.594a12.389,12.389,0,0,0,5.252-5.44,19.346,19.346,0,0,0,1.563-7.878l.25-13.693Zm19.7-11.88q4.439-2.564,7.034-.594t2.47,8.941a23.927,23.927,0,0,1-2.908,12.005,20.515,20.515,0,0,1-7.159,7.691,8.716,8.716,0,0,1-4.5,1.5,4.121,4.121,0,0,1-2.751-1.063l-.313.188a15.233,15.233,0,0,0,.156,2,7.253,7.253,0,0,1,0,2.126l-.219,11-4.783,2.782.719-39.048,3.877-2.251.625,3.126h.219a21.806,21.806,0,0,1,2.845-4.533,13.739,13.739,0,0,1,4.658-3.658Zm-1.219,5.033a11.918,11.918,0,0,0-4.877,5.158,18.391,18.391,0,0,0-1.563,7.472v.813q0,4.721,1.219,6.44t4.908-.375a9.7,9.7,0,0,0,4.471-5.284,26.653,26.653,0,0,0,1.594-7.91q0-4.408-1.344-6.253t-4.439.156Zm38.2-26.1q4.564-2.626,6.784-1.719t2.126,5.69l-.375,18.289-3.376,1.97-.875-3.126h-.188a26.96,26.96,0,0,1-3.376,5.158,18.685,18.685,0,0,1-4.815,3.814q-3.283,1.907-5.409,1.188t-2.032-4.94a12.637,12.637,0,0,1,2.939-7.91,33.278,33.278,0,0,1,8.629-7.316l4.158-2.564v-1.626q0-2.97-1.125-3.47t-3.408.75a19.784,19.784,0,0,0-3.564,2.657q-1.719,1.594-3.314,3.345l-1.469-3.126a39.627,39.627,0,0,1,3.97-3.97A19.383,19.383,0,0,1,486.338,143.81Zm4.1,12.005-3.126,1.97a20.31,20.31,0,0,0-5.784,4.877,8.309,8.309,0,0,0-1.688,4.627q0,2.095,1.063,2.407a3.985,3.985,0,0,0,2.908-.75,14.417,14.417,0,0,0,4.689-4.439,11.279,11.279,0,0,0,1.97-6.253ZM515.1,127.178q4.221-2.439,6.44-1.407t2.095,6.253l-.375,17.57-4.721,2.72.344-16.82q0-6.253-4.877-3.408a11.892,11.892,0,0,0-5.159,5.409,20.22,20.22,0,0,0-1.563,7.878L507,159l-4.783,2.751.563-27.012,3.783-2.188.594,3.126h.281a17.325,17.325,0,0,1,3.283-4.971,22.921,22.921,0,0,1,4.377-3.658Zm23.791,13.881q-4.408,2.564-6.972.594t-2.439-8.879a23.949,23.949,0,0,1,2.908-12.068,20.475,20.475,0,0,1,7.191-7.66,8.129,8.129,0,0,1,4.471-1.438,5.263,5.263,0,0,1,2.751.938h.281a14.614,14.614,0,0,0-.188-1.938,6.965,6.965,0,0,1,0-2.282l.219-10.129,4.752-2.751-.844,38.048-3.72,2.157-.719-3.126h-.219a21.092,21.092,0,0,1-2.845,4.5,17.974,17.974,0,0,1-4.658,3.939Zm1.219-5a12.056,12.056,0,0,0,4.971-5,17.8,17.8,0,0,0,1.594-7.409v-.907q0-4.752-1.219-6.472t-5,.406a10.934,10.934,0,0,0-4.471,5.158,20.155,20.155,0,0,0-1.626,8.066q0,4.564,1.344,6.253t4.377-.219Zm57.681-56.712q4.064-2.345,6.1-1.188t1.876,6.253l-.406,17.57-4.752,2.751.406-16.851q0-6.253-4.377-3.627a11.965,11.965,0,0,0-4.658,4.908,15.77,15.77,0,0,0-1.532,7.191l-.344,14.506-4.689,2.72.375-16.851q0-6.253-4.439-3.627a10.775,10.775,0,0,0-4.752,5.158,21.17,21.17,0,0,0-1.438,7.785l-.313,13.6-4.752,2.751.594-26.98,3.783-2.188.594,3.126h.281a16.135,16.135,0,0,1,3.126-4.846,18.643,18.643,0,0,1,4.1-3.345q5.565-3.126,7.253,0l.344-.219a18.915,18.915,0,0,1,7.6-8.691Zm24.792-14.35q4.5-2.626,6.722-1.688T631.4,69l-.438,18.258-3.345,1.938-.844-3.126h-.188a26.013,26.013,0,0,1-3.376,5.127,19.258,19.258,0,0,1-4.783,3.783q-3.126,1.876-5.377,1.157t-2-4.94a12.636,12.636,0,0,1,2.939-7.91,32.68,32.68,0,0,1,8.566-7.253l4.127-2.532V71.9q0-2.939-1.094-3.47t-3.376.75a18.9,18.9,0,0,0-3.533,2.657q-1.688,1.594-3.314,3.345l-1.438-3.126a41.779,41.779,0,0,1,3.97-3.939,23.224,23.224,0,0,1,4.69-3.22Zm4,12.005-3.126,1.97a20.732,20.732,0,0,0-5.753,4.846,8.2,8.2,0,0,0-1.688,4.627q0,2.095,1.032,2.407a3.978,3.978,0,0,0,2.876-.719,13.714,13.714,0,0,0,4.658-4.439,11.733,11.733,0,0,0,1.97-6.253ZM651.1,48.519q4.189-2.439,6.253-1.376t2.032,6.253l-.438,17.539-4.69,2.72.406-16.788q.156-6.253-4.783-3.439A11.963,11.963,0,0,0,644.75,58.8a20.422,20.422,0,0,0-1.595,7.878l-.344,13.6-4.721,2.751.656-26.949,3.752-2.157.594,3.126h.281a18.773,18.773,0,0,1,3.126-4.94,18.447,18.447,0,0,1,4.6-3.72Zm25.261-14.6q4.5-2.595,6.69-1.688t2.063,5.659l-.469,18.227L681.3,58.054l-.844-3.126h-.188a26.968,26.968,0,0,1-3.345,5.127,18.518,18.518,0,0,1-4.783,3.783q-3.126,1.876-5.346,1.157t-1.97-5.033a12.512,12.512,0,0,1,2.939-7.878,33.488,33.488,0,0,1,8.566-7.253l4.1-2.532V40.828q0-2.939-1.094-3.47t-3.345.719a21.223,21.223,0,0,0-3.533,2.626,41.507,41.507,0,0,0-3.283,3.345l-1.407-3.126a43.875,43.875,0,0,1,3.939-3.939,21.878,21.878,0,0,1,4.627-3.189ZM680.3,45.924l-3.126,1.97a20.138,20.138,0,0,0-5.721,4.846,8.31,8.31,0,0,0-1.688,4.627q0,2.095,1.032,2.407a3.978,3.978,0,0,0,2.876-.719,14.21,14.21,0,0,0,4.658-4.408,11.278,11.278,0,0,0,1.97-6.253Zm20.6-26.2a9.106,9.106,0,0,1,4.158-1.407,4.046,4.046,0,0,1,3.126,1.219h.219l.625-3.845,3.814-2.22-.719,27.293Q711.81,52.4,700.742,58.8a33.145,33.145,0,0,1-4.752,2.345,16.917,16.917,0,0,1-3.97,1.063V57.585a12.033,12.033,0,0,0,4.127-.844,34.335,34.335,0,0,0,4.846-2.282,12.771,12.771,0,0,0,4.565-4.5,12.372,12.372,0,0,0,1.751-6.253V39.2h-.188a19.785,19.785,0,0,1-3.126,4.846,16.4,16.4,0,0,1-4.189,3.376q-4.533,2.626-7,.438t-2.282-8.722a26.872,26.872,0,0,1,2.845-11.755A17.474,17.474,0,0,1,700.9,19.6Zm.875,3.845a10.646,10.646,0,0,0-4.346,4.971,21.053,21.053,0,0,0-1.688,8.1q0,4.69,1.313,6.253t4.314,0a12.594,12.594,0,0,0,4.877-4.815,16.483,16.483,0,0,0,1.72-7.5V29.355q0-5.19-1.344-6.534t-4.877.625ZM729.63,3.125Q734.35.4,736.945,2.093t2.47,7.347v2.907l-16.069,9.379q0,4.1,1.751,5.221t5.127-.813a30.469,30.469,0,0,0,4.127-2.845,41.557,41.557,0,0,0,3.752-3.564v4.408a33.143,33.143,0,0,1-3.689,3.47,36.185,36.185,0,0,1-4.377,2.939,12.622,12.622,0,0,1-6.1,2,4.516,4.516,0,0,1-4.033-2.188q-1.407-2.188-1.282-6.722a26.691,26.691,0,0,1,1.563-8.472,24.382,24.382,0,0,1,3.908-7,23.281,23.281,0,0,1,5.534-5.033Zm0,4.1a11.375,11.375,0,0,0-4.127,4.189,15.1,15.1,0,0,0-1.938,6.253l11.286-6.534q0-3.126-1.219-4.346t-4.127.281ZM9.009,522.5l-4.94,2.876.156-35.828,18.758-10.817v4.627L9.321,491.3v11.693l12.787-7.409v4.627L9.321,507.622Zm23.823-13.85L27.923,511.5l.219-38.141,4.908-2.845Zm29.263-43.925-.188,27.012L58,494.022l-.657-3.126h-.219a16.579,16.579,0,0,1-3.345,5,22.127,22.127,0,0,1-4.471,3.6q-4.377,2.564-6.69,1.563T40.366,494.8v-17.7l4.94-2.876v16.913q0,3.126,1.188,4t3.814-.657a12.223,12.223,0,0,0,5.315-5.5,19.95,19.95,0,0,0,1.532-7.91V467.386ZM78.538,478.3a20.992,20.992,0,0,0,3.752-2.814v4a19,19,0,0,1-2.126,1.907,22.914,22.914,0,0,1-2.689,1.845,10.118,10.118,0,0,1-3.689,1.407,2.8,2.8,0,0,1-2.689-1.032q-1-1.251-.969-4.564V464.1l-3.47,2V463.7l3.658-4.127,1.751-6.722,3.126-1.751v6.065l7.1-4.127V457.1l-7.1,4.127v14.85q0,2.22.969,2.689a2.412,2.412,0,0,0,2.376-.438Zm17.633-10.254a20.049,20.049,0,0,0,3.72-2.814v4a19,19,0,0,1-2.126,1.907,21.51,21.51,0,0,1-2.657,1.813,10.12,10.12,0,0,1-3.689,1.407,2.8,2.8,0,0,1-2.689-1.032q-1-1.251-.969-4.564V453.818l-3.47,2v-2.5l3.658-4.127,1.751-6.722,3-1.657v6.253l7.1-4.127V447l-7.1,3.97v14.85q0,2.22.969,2.689A2.635,2.635,0,0,0,96.171,468.042Zm18.758-34.39q4.877-2.845,7.66-1.188t2.72,7.316v2.907l-16.663,9.66q0,4.1,1.938,5.19t5.346-.907a30.469,30.469,0,0,0,4.252-2.939A36.622,36.622,0,0,0,123.964,450v4.408a35.952,35.952,0,0,1-8.285,6.69,13.234,13.234,0,0,1-6.253,2.126,4.971,4.971,0,0,1-4.252-2.095q-1.532-2.157-1.469-6.722a26.473,26.473,0,0,1,1.469-8.535,24.763,24.763,0,0,1,3.939-7.1,23.64,23.64,0,0,1,5.721-5.19Zm0,4.127a11.5,11.5,0,0,0-4.221,4.314,15.148,15.148,0,0,0-1.907,6.253l11.693-6.784q0-3.126-1.344-4.314t-4.346.438Zm28.825-20.821a18.749,18.749,0,0,1,2.72-1.313l-.563,5.252a10.954,10.954,0,0,0-2.47,1.094,12.8,12.8,0,0,0-3.5,3.126,18.776,18.776,0,0,0-2.626,4.377,13.731,13.731,0,0,0-1.032,5.1v14.225L131.4,451.66l.25-27.012,3.877-2.251.594,4.439h.188a26.87,26.87,0,0,1,3.126-5.534A21.232,21.232,0,0,1,143.6,416.9Zm31.576-18.32q4.5-2.595,7.159-.688t2.595,8.91a24.641,24.641,0,0,1-2.845,12.036,19.616,19.616,0,0,1-7.222,7.753,8.794,8.794,0,0,1-4.564,1.532,4.386,4.386,0,0,1-2.814-1.032l-.313.188a12.749,12.749,0,0,0,.188,2,5.877,5.877,0,0,1,0,2.095v11l-4.846,2.814.406-38.985,3.939-2.282.657,3.126h.219a21.8,21.8,0,0,1,2.845-4.533,20.315,20.315,0,0,1,4.439-4.033Zm-1.188,5.033a11.743,11.743,0,0,0-4.877,4.971,17.994,17.994,0,0,0-1.532,7.472v.813q0,4.721,1.313,6.253t5-.438a10.126,10.126,0,0,0,4.533-5.315,23.218,23.218,0,0,0,1.532-7.91q0-4.408-1.407-6.1t-4.721.156Zm29.45-21.447a19.625,19.625,0,0,1,2.689-1.313l-.563,5.252a10.952,10.952,0,0,0-2.47,1.094,12.8,12.8,0,0,0-3.5,3.126,18.777,18.777,0,0,0-2.626,4.377,13.732,13.732,0,0,0-1.032,5.1l-.156,14.225-4.846,2.814.281-26.98,3.845-2.22.594,4.439h.188a26.14,26.14,0,0,1,3.126-5.5,21.838,21.838,0,0,1,4.346-4.5Zm27.918-2.345a24.246,24.246,0,0,1-3.126,12.193,22.545,22.545,0,0,1-8.535,8.6,11.049,11.049,0,0,1-5.909,1.813,4.807,4.807,0,0,1-4-2.376q-1.438-2.251-1.407-6.753a23.8,23.8,0,0,1,3.126-12.13,23.209,23.209,0,0,1,8.535-8.566,11.081,11.081,0,0,1,5.94-1.845,4.807,4.807,0,0,1,4,2.376q1.282,1.97,1.219,6.6Zm-18.133,10.536q0,4.564,1.5,6.253t4.971-.344a12.04,12.04,0,0,0,5.033-5.471,19.723,19.723,0,0,0,1.657-8.035q0-4.6-1.5-6.253t-5.033.469a11.958,11.958,0,0,0-5,5.377,21.206,21.206,0,0,0-1.782,7.941Zm24.2-34.577a4.783,4.783,0,0,1,.844-2.845,6.342,6.342,0,0,1,1.97-1.845,2.544,2.544,0,0,1,1.907-.406q.813.219.782,1.876a4.822,4.822,0,0,1-.844,2.814,6,6,0,0,1-1.938,1.845,2.535,2.535,0,0,1-1.97.406q-.813-.25-.907-1.938Zm-3,47.458-.594.313-.563.281-.531.25-.5.219a8.255,8.255,0,0,1-1.657.531v-4.252a14.887,14.887,0,0,0,1.469-.469,9.6,9.6,0,0,0,1.657-.844,7.006,7.006,0,0,0,2.407-2.282,7.2,7.2,0,0,0,.969-3.877l.406-30.513,4.846-2.814-.375,30.669a14.132,14.132,0,0,1-1.845,7.034A16.621,16.621,0,0,1,234.574,403.3Zm25.2-53.8q4.846-2.814,7.566-1.157T270,355.651v2.907l-16.507,9.6q0,4.1,1.907,5.19t5.284-.875a28.926,28.926,0,0,0,4.221-2.939,50.065,50.065,0,0,0,3.814-3.627v4.408a34.33,34.33,0,0,1-3.752,3.533,47.933,47.933,0,0,1-4.471,3.126,13.233,13.233,0,0,1-6.253,2.095,4.821,4.821,0,0,1-4.221-2.126q-1.5-2.157-1.438-6.722a25.649,25.649,0,0,1,1.5-8.5,24.763,24.763,0,0,1,3.939-7.1,23.086,23.086,0,0,1,5.721-5.159Zm0,4.1a11.336,11.336,0,0,0-4.189,4.283,15.148,15.148,0,0,0-1.907,6.253l11.6-6.722q0-3.126-1.313-4.314t-4.252.469Zm25.98,8.566q-5.1,2.97-8.16,1.438t-2.97-8.66a23.5,23.5,0,0,1,1.626-8.973,29.24,29.24,0,0,1,4.033-7.034,23.706,23.706,0,0,1,9.879-6.753,10.667,10.667,0,0,1,2.97-.625L291.6,336.7q-1.282.25-2.689.625a10.686,10.686,0,0,0-2.72,1.157q-6.659,3.877-6.784,13.475,0,4.6,1.532,6.034t4.783-.406a21.143,21.143,0,0,0,3.6-2.595,26.078,26.078,0,0,0,2.939-3.126v4.6a22.327,22.327,0,0,1-2.876,2.908,44.494,44.494,0,0,1-3.72,2.751Zm21.29-16.632a19.467,19.467,0,0,0,3.689-2.782v4a18.265,18.265,0,0,1-2.095,1.876,24.757,24.757,0,0,1-2.626,1.813,10.115,10.115,0,0,1-3.658,1.376,2.64,2.64,0,0,1-2.626-1.063q-.969-1.282-.938-4.564l.094-14.788-3.408,1.97v-2.407l3.627-4.1,1.751-6.69,2.97-1.719v6.065l7-4.064v4.064l-7,4.064-.219,14.788q0,2.188.938,2.689t2.439-.563Zm25.011-18.227a12.352,12.352,0,0,1-2.689,7.566,24.032,24.032,0,0,1-7.378,6.253,31.5,31.5,0,0,1-4.408,2.188,10.141,10.141,0,0,1-3.376.719v-4.658a13.09,13.09,0,0,0,3.72-.657,21.627,21.627,0,0,0,4.189-1.782,14.212,14.212,0,0,0,3.939-3.126,5.159,5.159,0,0,0,1.251-3.126,1.83,1.83,0,0,0-.438-1.344,2.608,2.608,0,0,0-1.688-.5,27.436,27.436,0,0,0-3.627.344,20.04,20.04,0,0,1-3.939.25,2.93,2.93,0,0,1-2.439-1.063,4.825,4.825,0,0,1-.813-3.126,11.053,11.053,0,0,1,2.657-6.878,23.973,23.973,0,0,1,6.815-5.815,23.03,23.03,0,0,1,4.189-1.938,17.75,17.75,0,0,1,3.814-.844l-1.657,4.971a20.748,20.748,0,0,0-3.126.625,15.853,15.853,0,0,0-3.408,1.469q-4.439,2.595-4.5,5.44a1.636,1.636,0,0,0,.5,1.344,2.693,2.693,0,0,0,1.782.344,22.275,22.275,0,0,0,3.6-.406,14.259,14.259,0,0,1,3.814-.25,2.969,2.969,0,0,1,2.439,1.032,3.669,3.669,0,0,1,.594,2.908Zm39.142-28.575a23.185,23.185,0,0,1-3.283,12.161,24.09,24.09,0,0,1-8.472,8.535,10.615,10.615,0,0,1-5.846,1.782,4.864,4.864,0,0,1-3.97-2.407q-1.438-2.251-1.344-6.753a23.735,23.735,0,0,1,3.126-12.1,23.043,23.043,0,0,1,8.5-8.535,11,11,0,0,1,5.878-1.813,4.784,4.784,0,0,1,3.97,2.376,14.531,14.531,0,0,1,1.188,6.69Zm-17.976,10.442q0,4.533,1.438,6.253t4.908-.344a11.91,11.91,0,0,0,5-5.44,19.994,19.994,0,0,0,1.688-8q0-4.6-1.438-6.253t-4.971.438a11.826,11.826,0,0,0-4.971,5.346A22.46,22.46,0,0,0,353,309.1Zm36.484-35.14q4.252-2.47,6.472-1.438t2.126,6.253l-.313,17.508-4.752,2.751.281-16.757q0-6.253-4.908-3.376a12.023,12.023,0,0,0-5.19,5.44,19.866,19.866,0,0,0-1.532,7.878l-.219,13.568-4.783,2.782.438-26.918,3.814-2.22.625,3.126.281-.156a17.327,17.327,0,0,1,3.283-4.971A18.106,18.106,0,0,1,389.7,274.022Zm24.2-13.537,5.158-3.126,4.783,12.349q.563,1.407.969,2.751a15.289,15.289,0,0,1,.563,2.814h.188q.25-1.438.75-3.439t1.125-4.158l5.065-18.008,5.158-3.126-10.973,36.609a31.636,31.636,0,0,1-3.6,8.128,16.8,16.8,0,0,1-5.752,5.534,17.55,17.55,0,0,1-1.938,1q-.813.344-1.407.532v-4.189q.438-.156,1.157-.469a13.041,13.041,0,0,0,1.5-.782,10.563,10.563,0,0,0,3.376-3.126,15.257,15.257,0,0,0,2.063-4.627l1.032-3.47Zm48.646-14.975a22.857,22.857,0,0,1-3.314,12.13,24.606,24.606,0,0,1-8.441,8.5,10.829,10.829,0,0,1-5.815,1.782,4.692,4.692,0,0,1-3.939-2.407,13.905,13.905,0,0,1-1.313-6.784,23.735,23.735,0,0,1,3.126-12.1,22.877,22.877,0,0,1,8.472-8.5,10.71,10.71,0,0,1,5.846-1.782,4.776,4.776,0,0,1,3.908,2.376q1.532,2.251,1.438,6.753ZM444.664,255.92q0,4.533,1.438,6.253t4.877-.313a11.986,11.986,0,0,0,4.971-5.409,19.76,19.76,0,0,0,1.688-7.972q0-4.6-1.407-6.253t-4.94.438a12.093,12.093,0,0,0-4.971,5.315,19.153,19.153,0,0,0-1.688,7.91Zm45.082-39.486-.531,26.887-3.814,2.22-.594-3.126h-.219a16.585,16.585,0,0,1-3.314,4.94,20.964,20.964,0,0,1-4.377,3.5q-4.283,2.47-6.471,1.469t-2.095-6.253l.344-17.6,4.815-2.814-.344,16.82q0,3.126,1.094,4t3.689-.625a12.211,12.211,0,0,0,5.221-5.44,19.756,19.756,0,0,0,1.594-7.847l.281-13.631Zm19.446-11.786a16.035,16.035,0,0,1,2.657-1.282l-.594,5.221a11.356,11.356,0,0,0-2.407,1.063,11.97,11.97,0,0,0-3.439,3.126,20.659,20.659,0,0,0-2.595,4.346,14.12,14.12,0,0,0-1.063,5.065l-.281,14.162-4.752,2.782.531-26.886,3.783-2.188.532,4.439h.188a26.47,26.47,0,0,1,3.126-5.471,20.291,20.291,0,0,1,4.252-4.377Zm26.511,12.13q-4.408,2.564-6.972.594t-2.438-8.816A23.883,23.883,0,0,1,529.2,196.52a20.572,20.572,0,0,1,7.159-7.66,8.4,8.4,0,0,1,4.471-1.469,4.17,4.17,0,0,1,2.751,1.157h.281a13.941,13.941,0,0,0-.188-1.907,6.779,6.779,0,0,1,0-2.251l.219-10.067,4.752-2.751-.844,37.891-3.72,2.157-.719-3.126h-.219A22.173,22.173,0,0,1,540.3,213a14.772,14.772,0,0,1-4.658,3.752Zm1.219-4.971a11.848,11.848,0,0,0,4.94-5,18.393,18.393,0,0,0,1.594-7.378v-.813q0-4.721-1.219-6.44t-5,.438a10.767,10.767,0,0,0-4.439,5.158,20.815,20.815,0,0,0-1.626,8.035q0,4.533,1.344,6.253t4.346-.281Zm28.387-39.7q4.752-2.751,7.409-1.063t2.532,7.316v2.876l-16.194,9.379q0,4.1,1.813,5.19t5.158-.844a30.38,30.38,0,0,0,4.158-2.876,39.639,39.639,0,0,0,3.752-3.6v4.377a35.653,35.653,0,0,1-3.689,3.5,46.377,46.377,0,0,1-4.408,3.126,12.793,12.793,0,0,1-6.253,2.032,4.652,4.652,0,0,1-4.189-2.282q-1.438-2.157-1.344-6.69a26.116,26.116,0,0,1,1.532-8.472,24.839,24.839,0,0,1,3.908-7.034,21.912,21.912,0,0,1,5.753-5.1Zm0,4.1a11.009,11.009,0,0,0-4.127,4.221,15.95,15.95,0,0,0-1.938,6.253l11.38-6.6q0-3.126-1.251-4.314t-4.221.375Zm20.1,11.286-8.5-21.54,5-2.907,4.658,12.787q.406,1.344.844,2.939a21.568,21.568,0,0,1,.594,2.751h.188q.219-1.344.782-3.564t1.063-4.033l5.377-18.758,5-2.908-9.942,32.2ZM606.8,138.5a2.4,2.4,0,0,1,1.844-.406q.782.219.75,1.876a4.679,4.679,0,0,1-.844,2.782,6.256,6.256,0,0,1-1.907,1.813,2.4,2.4,0,0,1-1.907.406q-.782-.25-.75-1.845a4.644,4.644,0,0,1,.844-2.814,9.083,9.083,0,0,1,1.782-1.876Zm2.095,8.879-.625,26.855-4.721,2.751.625-26.855Zm16.444,17.414q-5,2.908-7.941,1.344t-2.782-8.66a22.785,22.785,0,0,1,1.657-8.91,26.722,26.722,0,0,1,4.158-6.909,19.873,19.873,0,0,1,5.94-4.877,21.182,21.182,0,0,1,3.752-1.751,9.436,9.436,0,0,1,2.908-.594l-1.532,5.127q-1.251.219-2.595.594a11.681,11.681,0,0,0-2.657,1.125q-6.5,3.783-6.753,13.349,0,4.6,1.438,6.034t4.658-.344a20.35,20.35,0,0,0,3.533-2.532,31.777,31.777,0,0,0,2.876-2.939v4.564a21.839,21.839,0,0,1-2.845,2.876,18.422,18.422,0,0,1-4,2.439ZM647.626,124.4q4.721-2.751,7.347-1.063t2.5,7.316v2.876L641.342,142.9q0,4.064,1.782,5.19t5.127-.813a28.788,28.788,0,0,0,4.127-2.876,48.366,48.366,0,0,0,3.752-3.564v4.377a35.648,35.648,0,0,1-3.689,3.5,33.909,33.909,0,0,1-4.377,2.97,12.665,12.665,0,0,1-6.253,2.032,4.379,4.379,0,0,1-4.064-2.157q-1.407-2.157-1.313-6.69A25.583,25.583,0,0,1,638,136.4a24.382,24.382,0,0,1,3.908-7,23.881,23.881,0,0,1,5.534-5.065Zm0,4.1a11.31,11.31,0,0,0-4.127,4.221,15.292,15.292,0,0,0-1.938,6.253l11.317-6.565q0-3.126-1.219-4.314t-4.314.344Zm14.85,11.38a4.792,4.792,0,0,1,.969-3.126,11.019,11.019,0,0,1,2.157-2.032,2.8,2.8,0,0,1,2.126-.469q.875.25.844,2.22a5.606,5.606,0,0,1-.969,3.314,7.156,7.156,0,0,1-2.188,2.095,2.564,2.564,0,0,1-2.126.406q-.875-.313-1.094-2.47Z" transform="translate(5269.722 12400.274)" fill="#fff"/></g></svg>