<svg xmlns="http://www.w3.org/2000/svg" width="25.724" height="25.727" viewBox="0 0 25.724 25.727"><g transform="translate(-3.529 -4.95)"><path d="M6.85,5.75H4a.75.75,0,0,1,0-1.5H6.85a.75.75,0,0,1,0,1.5Z" transform="translate(1.701 2.126)" fill="#cdd4dd"/><path d="M5,7.6a.75.75,0,0,1-.75-.75V4a.75.75,0,0,1,1.5,0V6.85A.75.75,0,0,1,5,7.6Z" transform="translate(2.126 1.701)" fill="#cdd4dd"/><path d="M11,7.6a.751.751,0,0,1-.728-.932l.713-2.85a.75.75,0,1,1,1.455.364l-.713,2.85A.75.75,0,0,1,11,7.6Z" transform="translate(4.676 1.701)" fill="#cdd4dd"/><path d="M20.85,5.75H18a.75.75,0,0,1,0-1.5h2.85a.75.75,0,0,1,0,1.5Z" transform="translate(7.652 2.126)" fill="#cdd4dd"/><path d="M19,7.6a.75.75,0,0,1-.75-.75V4a.75.75,0,0,1,1.5,0V6.85A.75.75,0,0,1,19,7.6Z" transform="translate(8.077 1.701)" fill="#cdd4dd"/><path d="M14,11.175a.75.75,0,0,1-.53-1.28L14.895,8.47A.75.75,0,0,1,15.955,9.53L14.53,10.955A.748.748,0,0,1,14,11.175Z" transform="translate(5.952 3.826)" fill="#cdd4dd"/><path d="M18,13.963a.75.75,0,0,1-.181-1.478l2.85-.713a.75.75,0,1,1,.364,1.455l-2.85.713A.752.752,0,0,1,18,13.963Z" transform="translate(7.652 5.314)" fill="#cdd4dd"/><path d="M20.85,19.75H18a.75.75,0,0,1,0-1.5h2.85a.75.75,0,1,1,0,1.5Z" transform="translate(7.652 8.077)" fill="#cdd4dd"/><path d="M19,21.6a.75.75,0,0,1-.75-.75V18a.75.75,0,0,1,1.5,0v2.85A.75.75,0,0,1,19,21.6Z" transform="translate(8.077 7.652)" fill="#cdd4dd"/><path d="M4.431,26.426a2.166,2.166,0,0,1-1.541-.638,2.189,2.189,0,0,1-.441-2.446L8.705,9.688A.75.75,0,0,1,9.917,9.47l9.289,9.289a.751.751,0,0,1-.218,1.214L5.337,26.229A2.165,2.165,0,0,1,4.431,26.426ZM9.619,11.293,3.812,23.965a.679.679,0,0,0,.619.961.674.674,0,0,0,.282-.061l12.671-5.807Z" transform="translate(1.276 4.251)" fill="#cdd4dd"/></g></svg>