<svg xmlns="http://www.w3.org/2000/svg" width="26.257" height="31.208" viewBox="0 0 26.257 31.208"><g transform="translate(-7.502 -4.202)"><path d="M23.252,12h-6.6a2.4,2.4,0,0,1-2.4-2.4V3a.75.75,0,0,1,1.5,0V9.6a.9.9,0,0,0,.9.9h6.6a.75.75,0,0,1,0,1.5Z" transform="translate(9.757 1.951)" fill="#f4f4f4"/><path d="M23.854,26.857H12.3A4.056,4.056,0,0,1,8.25,22.806V6.3A4.056,4.056,0,0,1,12.3,2.25h6.6a.75.75,0,0,1,.53.22l8.252,8.252a.75.75,0,0,1,.22.53V22.806A4.056,4.056,0,0,1,23.854,26.857ZM12.3,3.75A2.554,2.554,0,0,0,9.75,6.3v16.5A2.554,2.554,0,0,0,12.3,25.357H23.854a2.554,2.554,0,0,0,2.551-2.551V11.563L18.592,3.75Z" transform="translate(5.854 1.951)" fill="#f4f4f4"/><path d="M19.854,30.857H8.3A4.056,4.056,0,0,1,4.25,26.806V10.3A4.056,4.056,0,0,1,8.3,6.25h3.3a.75.75,0,0,1,0,1.5H8.3A2.554,2.554,0,0,0,5.75,10.3v16.5A2.554,2.554,0,0,0,8.3,29.357H19.854a2.554,2.554,0,0,0,2.551-2.551V23.5a.75.75,0,0,1,1.5,0v3.3A4.056,4.056,0,0,1,19.854,30.857Z" transform="translate(3.252 4.553)" fill="#f4f4f4"/></g></svg>