<svg xmlns="http://www.w3.org/2000/svg" width="36.975" height="41.342" viewBox="0 0 36.975 41.342"><g transform="translate(-7.743 -5.557)"><path d="M21.485,2a1,1,0,0,1,.49.128L39.46,11.964a1,1,0,0,1,.51.872v19.67a1,1,0,0,1-.51.872L21.975,43.213a1,1,0,0,1-.981,0L3.51,33.378A1,1,0,0,1,3,32.506V12.835a1,1,0,0,1,.51-.872L21,2.128A1,1,0,0,1,21.485,2ZM37.97,13.42,21.485,4.147,5,13.42v18.5l16.485,9.273L37.97,31.921Z" transform="translate(4.743 3.557)" fill="#cdd4dd"/><path d="M12,18.336a1,1,0,0,1-.491-1.872L29,6.628a1,1,0,0,1,.981,1.743L12.49,18.207A1,1,0,0,1,12,18.336Z" transform="translate(14.228 8.892)" fill="#cdd4dd"/><path d="M0,20a1,1,0,0,1-1-1V0A1,1,0,0,1,0-1,1,1,0,0,1,1,0V19a1,1,0,0,1-1,1Z" transform="translate(26 26)" fill="#cdd4dd"/><path d="M21.484,18.336a1,1,0,0,1-.489-.129L3.51,8.372a1,1,0,1,1,.98-1.744l17.485,9.835a1,1,0,0,1-.491,1.872Z" transform="translate(4.743 8.892)" fill="#cdd4dd"/><path d="M16,27.753a1,1,0,0,1-1-1V16.371a1,1,0,0,1,.553-.894L24.3,11.106a1,1,0,1,1,.894,1.789L17,16.989v9.764A1,1,0,0,1,16,27.753Z" transform="translate(18.97 14.228)" fill="#cdd4dd"/><path d="M12.743,27.753a1,1,0,0,1-1-1V16.989l-8.19-4.095A1,1,0,1,1,4.447,11.1l8.743,4.371a1,1,0,0,1,.553.894V26.753A1,1,0,0,1,12.743,27.753Z" transform="translate(4.743 14.228)" fill="#cdd4dd"/><path d="M16.743,11.168a1,1,0,0,1-.49-.128L7.51,6.122a1,1,0,0,1,.98-1.744L16.743,9.02l8.252-4.642a1,1,0,1,1,.981,1.743l-8.743,4.918A1,1,0,0,1,16.743,11.168Z" transform="translate(9.485 6.225)" fill="#cdd4dd"/></g></svg>