<svg xmlns="http://www.w3.org/2000/svg" width="24" height="24" viewBox="0 0 24 24"><path d="M0,0H24V24H0Z" fill="none"/><path d="M21,12.75H19a.75.75,0,0,1,0-1.5h.189L12,4.061,4.811,11.25H5a.75.75,0,0,1,0,1.5H3a.75.75,0,0,1-.53-1.28l9-9a.75.75,0,0,1,1.061,0l9,9A.75.75,0,0,1,21,12.75Z"/><path d="M17,21.75H7A2.753,2.753,0,0,1,4.25,19V12a.75.75,0,0,1,1.5,0v7A1.251,1.251,0,0,0,7,20.25H17A1.251,1.251,0,0,0,18.25,19V12a.75.75,0,0,1,1.5,0v7A2.753,2.753,0,0,1,17,21.75Z"/><path d="M15,21.75a.75.75,0,0,1-.75-.75V15A1.251,1.251,0,0,0,13,13.75H11A1.251,1.251,0,0,0,9.75,15v6a.75.75,0,0,1-1.5,0V15A2.753,2.753,0,0,1,11,12.25h2A2.753,2.753,0,0,1,15.75,15v6A.75.75,0,0,1,15,21.75Z"/></svg>