<svg xmlns="http://www.w3.org/2000/svg" width="24" height="24" viewBox="0 0 24 24"><path d="M0,0H24V24H0Z" fill="none"/><path d="M12,21.75a.75.75,0,0,1-.368-.1l-8-4.5A.75.75,0,0,1,3.25,16.5v-9a.75.75,0,0,1,.382-.654l8-4.5a.75.75,0,0,1,.735,0l8,4.5a.75.75,0,0,1,.382.654v9a.75.75,0,0,1-.382.654l-8,4.5A.75.75,0,0,1,12,21.75ZM4.75,16.061,12,20.139l7.25-4.078V7.939L12,3.861,4.75,7.939Z"/><path d="M0,5.25a.75.75,0,0,1-.654-.382A.75.75,0,0,1-.368,3.846l8-4.5a.75.75,0,0,1,1.021.286A.75.75,0,0,1,8.368.654l-8,4.5A.747.747,0,0,1,0,5.25Z" transform="translate(12 7.5)"/><path d="M0,9.75A.75.75,0,0,1-.75,9V0A.75.75,0,0,1,0-.75.75.75,0,0,1,.75,0V9A.75.75,0,0,1,0,9.75Z" transform="translate(12 12)"/><path d="M8,5.25a.747.747,0,0,1-.367-.1l-8-4.5A.75.75,0,0,1-.654-.368.75.75,0,0,1,.368-.654l8,4.5A.75.75,0,0,1,8,5.25Z" transform="translate(4 7.5)"/></svg>