<svg xmlns="http://www.w3.org/2000/svg" width="24" height="24" viewBox="0 0 24 24"><g transform="translate(-7648 -7388)"><path d="M0,0H24V24H0Z" transform="translate(7648 7388)" fill="none"/><path d="M7,21.75a.751.751,0,0,1-.712-.987l4-12a.75.75,0,1,1,1.423.474l-4,12A.75.75,0,0,1,7,21.75Z" transform="translate(7648 7388)"/><path d="M2-.75A2.75,2.75,0,1,1-.75,2,2.753,2.753,0,0,1,2-.75Zm0,4A1.25,1.25,0,1,0,.75,2,1.251,1.251,0,0,0,2,3.25Z" transform="translate(7658 7393)"/><path d="M12,17.75a9.509,9.509,0,0,1-5.11-1.509,10.138,10.138,0,0,1-3.556-3.9.75.75,0,1,1,1.333-.688A8.4,8.4,0,0,0,12,16.25a8.406,8.406,0,0,0,7.334-4.595.75.75,0,1,1,1.332.689,10.153,10.153,0,0,1-3.557,3.895A9.5,9.5,0,0,1,12,17.75Z" transform="translate(7648 7388)"/><path d="M12,5.75A.75.75,0,0,1,11.25,5V3a.75.75,0,0,1,1.5,0V5A.75.75,0,0,1,12,5.75Z" transform="translate(7648 7388)"/><path d="M17,21.75a.75.75,0,0,1-.711-.513l-1.571-4.714a.75.75,0,1,1,1.423-.474l1.571,4.714A.751.751,0,0,1,17,21.75Z" transform="translate(7648 7388)"/><path d="M14.48,14.189a.75.75,0,0,1-.711-.513l-1.48-4.439a.75.75,0,0,1,1.423-.474l1.48,4.439a.751.751,0,0,1-.712.987Z" transform="translate(7648 7388)"/></g></svg>