<svg xmlns="http://www.w3.org/2000/svg" width="24" height="24" viewBox="0 0 24 24"><path d="M0,0H24V24H0Z" fill="none"/><path d="M12,2.25a2.437,2.437,0,0,1,2.4,1.89.974.974,0,0,0,1.454.6,2.451,2.451,0,0,1,3.458.919,2.429,2.429,0,0,1-.057,2.482.974.974,0,0,0,.6,1.453,2.474,2.474,0,0,1,0,4.808.974.974,0,0,0-.6,1.454,2.428,2.428,0,0,1,.058,2.481,2.5,2.5,0,0,1-2.166,1.292,2.457,2.457,0,0,1-1.292-.372.974.974,0,0,0-1.453.6,2.474,2.474,0,0,1-4.808,0,.974.974,0,0,0-1.454-.6,2.451,2.451,0,0,1-3.458-.919,2.429,2.429,0,0,1,.057-2.481.974.974,0,0,0-.6-1.453,2.474,2.474,0,0,1,0-4.808.974.974,0,0,0,.6-1.454,2.428,2.428,0,0,1-.058-2.481A2.5,2.5,0,0,1,6.851,4.369a2.457,2.457,0,0,1,1.292.372.962.962,0,0,0,.506.144A.973.973,0,0,0,9.6,4.14,2.437,2.437,0,0,1,12,2.25Zm3.35,4.135a2.474,2.474,0,0,1-2.4-1.891.974.974,0,0,0-1.892,0,2.471,2.471,0,0,1-3.69,1.529.98.98,0,0,0-.513-.154,1.012,1.012,0,0,0-.858.527.921.921,0,0,0,.031.966,2.474,2.474,0,0,1-1.53,3.692.974.974,0,0,0,0,1.892,2.474,2.474,0,0,1,1.529,3.691.922.922,0,0,0-.031.966,1.012,1.012,0,0,0,.858.526.978.978,0,0,0,.512-.153,2.474,2.474,0,0,1,3.692,1.53.974.974,0,0,0,1.892,0,2.474,2.474,0,0,1,3.691-1.529.979.979,0,0,0,.512.153,1.012,1.012,0,0,0,.858-.526.921.921,0,0,0-.031-.966,2.474,2.474,0,0,1,1.53-3.692.974.974,0,0,0,0-1.892,2.474,2.474,0,0,1-1.529-3.691.922.922,0,0,0,.031-.967,1.012,1.012,0,0,0-.858-.526.979.979,0,0,0-.512.153A2.473,2.473,0,0,1,15.35,6.385Z"/><path d="M3-.75A3.75,3.75,0,1,1-.75,3,3.754,3.754,0,0,1,3-.75Zm0,6A2.25,2.25,0,1,0,.75,3,2.253,2.253,0,0,0,3,5.25Z" transform="translate(9 9)"/></svg>