<svg xmlns="http://www.w3.org/2000/svg" width="24" height="24" viewBox="0 0 24 24"><g transform="translate(-5093 -9214)"><g transform="translate(5093 9214)"><path d="M0,0H24V24H0Z" fill="none"/><path d="M7-.75A7.75,7.75,0,1,1-.75,7,7.759,7.759,0,0,1,7-.75Zm0,14A6.25,6.25,0,1,0,.75,7,6.257,6.257,0,0,0,7,13.25Z" transform="translate(5 5)"/></g><path d="M4,3.5H0a.5.5,0,0,1-.441-.264.5.5,0,0,1,.025-.513l2-3A.5.5,0,0,1,2-.5a.5.5,0,0,1,.416.223l2,3A.5.5,0,0,1,4,3.5ZM.934,2.5H3.066L2,.9Z" transform="translate(5107 9224) rotate(90)"/></g></svg>