<svg width="243" height="217" viewBox="0 0 243 217" fill="none" xmlns="http://www.w3.org/2000/svg">
<path d="M0 15C0 6.71573 6.71573 0 15 0H228C236.284 0 243 6.71573 243 15V92H0V15Z" fill="#7CB342"/>
<path d="M0 92H243V169C243 177.284 236.284 184 228 184H15C6.71573 184 0 177.284 0 169V92Z" fill="#87BD49"/>
<path d="M169 49.7305C169 49.4325 169.342 49.2644 169.578 49.4466V49.4466L170.156 49.8931L171.312 50.7861L173.625 52.5721L178.25 56.1442L187.5 63.2884L206 77.5767L224.5 91.865L233.75 99.0091L238.375 102.581L240.688 104.367L241.844 105.26L242.422 105.707L242.711 105.93L242.855 106.042V106.042C242.947 106.112 243 106.221 243 106.336V169C243 177.284 236.284 184 228 184H206H187.5H178.25V184C173.141 184 169 179.859 169 174.75V49.7305Z" fill="black" fill-opacity="0.2"/>
<mask id="path-4-inside-1" fill="white">
<rect x="66" y="46" width="112" height="171" rx="18"/>
</mask>
<rect x="66" y="46" width="112" height="171" rx="18" fill="white" stroke="#616161" stroke-width="40" mask="url(#path-4-inside-1)"/>
</svg>
