<svg xmlns="http://www.w3.org/2000/svg" width="36.001" height="35.813" viewBox="0 0 36.001 35.813"><path d="M34.725,3.881,27.315.315A2.241,2.241,0,0,0,24.757.75L10.568,13.695,4.388,9a1.5,1.5,0,0,0-1.914.086l-1.983,1.8a1.5,1.5,0,0,0,0,2.218L5.848,18,.489,22.89a1.5,1.5,0,0,0,0,2.219l1.985,1.8A1.5,1.5,0,0,0,4.389,27l6.18-4.692,14.19,12.945a2.238,2.238,0,0,0,2.556.435l7.413-3.565A2.25,2.25,0,0,0,36,30.09V5.909A2.25,2.25,0,0,0,34.725,3.88ZM27.006,26.172,16.239,18,27.006,9.828V26.172Z" transform="translate(0.001 -0.093)" fill="#163541"/></svg>