<svg xmlns="http://www.w3.org/2000/svg" width="35.799" height="33.573" viewBox="0 0 35.799 33.573"><path d="M30,7.2c.6-.3.9-.6,1.35-.6a1.5,1.5,0,0,1,1.35.75,2.768,2.768,0,0,0,1.8.75c.3,0,.75-1.05,1.05-1.95a3.534,3.534,0,0,0,.15-2.1,5.317,5.317,0,0,0-1.65-.45A1.434,1.434,0,0,1,33,3.9,2.607,2.607,0,0,1,31.35,3,6.016,6.016,0,0,0,28.8,1.65a9.231,9.231,0,0,0-2.85-.3,9.987,9.987,0,0,0-4.2.3,7.312,7.312,0,0,0-1.65.6,1.584,1.584,0,0,1-.75.3c-.15.15-.15.3,0,.3a6.5,6.5,0,0,0,.75-.15s-.75.3-.75.6a.147.147,0,0,0,.15.15,3.052,3.052,0,0,1,.75-.15c.6,0,1.5-.3,2.25-.3a3.665,3.665,0,0,1,2.7,1.2,6.325,6.325,0,0,1,1.2,4.2c-.3,3.15-7.35,22.35-7.65,23.7s-.3,2.1,1.35,2.55,2.25,0,2.55-.6C22.8,33,27.3,9.3,30,7.2ZM24.15,5.7,0,9.45,3.9,34.5l12.9-2.1c-.15-1.05,3.3-10.05,3.9-11.7l-6.6,1.05.9-2.7,4.65-.75,1.2,1.5a4.65,4.65,0,0,0,.3-1.05L14.7,10.8a.949.949,0,0,1,.15-1.35l.3-.3a.949.949,0,0,1,1.35.15l5.7,6.6c1.2-3.6,2.25-6.75,2.25-7.8a3.739,3.739,0,0,0-.3-2.4Zm-18,14.85,4.05-.75L9.15,22.5l-2.7.45-.3-2.4Zm8.7-7.65.45.15c.6.15.75.75.6,1.35l-4.5,12L8.7,30,9,25.5l4.5-12c.15-.6.75-.75,1.35-.6Zm16.2-4.2c-.6.6-1.35,2.55-2.85,8.25h.15l.45,2.4-1.2.15a18.655,18.655,0,0,1-.6,2.4c2.55,1.35,1.2,4.65,1.05,4.65s-.15,0-.15-.15.15-.6-.3-.75a9.471,9.471,0,0,1-1.35-.6c-.45,1.8-.9,3.9-1.35,6.15l9.45-1.5L31.2,8.55l-.15.15Z" transform="translate(0 -1.26)" fill="#163541"/></svg>