<svg width="315" height="178" viewBox="0 0 315 178" fill="none" xmlns="http://www.w3.org/2000/svg">
<path d="M230.098 132.478C227.489 132.539 224.921 131.815 222.728 130.399C220.535 128.983 218.819 126.941 217.801 124.537C216.784 122.134 216.512 119.479 217.021 116.919C217.531 114.359 218.798 112.012 220.659 110.181C222.502 108.355 224.843 107.114 227.388 106.613C229.934 106.111 232.571 106.372 234.968 107.363C237.366 108.353 239.419 110.029 240.868 112.18C242.318 114.332 243.101 116.863 243.118 119.458C243.118 122.911 241.746 126.222 239.305 128.664C236.863 131.106 233.551 132.478 230.098 132.478ZM85.4145 132.478C82.8189 132.506 80.2741 131.758 78.1069 130.329C75.9396 128.9 74.2489 126.856 73.2518 124.46C72.2547 122.063 71.9966 119.423 72.5109 116.879C73.0252 114.335 74.2882 112.002 76.1378 110.181C77.3052 108.759 78.7575 107.596 80.4011 106.769C82.0448 105.942 83.8433 105.468 85.6812 105.377C87.5191 105.287 89.3557 105.583 91.0724 106.245C92.7893 106.907 94.3484 107.922 95.6495 109.223C96.9507 110.524 97.965 112.083 98.6273 113.8C99.2896 115.517 99.585 117.353 99.4947 119.191C99.4045 121.029 98.9305 122.827 98.1032 124.471C97.2759 126.115 96.1136 127.567 94.6912 128.734C93.4735 129.946 92.0252 130.902 90.4319 131.545C88.8385 132.188 87.1324 132.505 85.4145 132.478ZM234.818 53.5444L260.858 8.30018C261.348 7.07069 261.382 5.70607 260.952 4.45394C260.523 3.2018 259.659 2.14512 258.517 1.47567C257.375 0.806218 256.031 0.568348 254.728 0.805226C253.426 1.0421 252.252 1.73804 251.418 2.76673L225.053 48.6619C203.916 39.1683 181.009 34.2599 157.838 34.2599C134.667 34.2599 111.759 39.1683 90.6225 48.6619L64.0944 2.76673C63.615 1.93608 62.9279 1.2443 62.1004 0.759269C61.273 0.274234 60.3337 0.0125968 59.3747 0C58.4254 0.0557588 57.5029 0.335538 56.6825 0.816432C55.8622 1.29733 55.1674 1.96566 54.655 2.76673C54.1693 3.60792 53.9137 4.56212 53.9137 5.53345C53.9137 6.50477 54.1693 7.45899 54.655 8.30018L80.8576 53.5444C58.2701 65.9086 39.1203 83.7075 25.1397 105.332C11.1592 126.956 2.78878 151.724 0.785156 177.396H314.89C312.887 151.724 304.516 126.956 290.536 105.332C276.555 83.7075 257.405 65.9086 234.818 53.5444Z" fill="#3DDC84"/>
</svg>
