<svg width="150" height="150" viewBox="0 0 150 150" fill="none" xmlns="http://www.w3.org/2000/svg">
<path d="M82.5919 21.8468C84.9323 19.6641 88.0134 18.4503 91.2136 18.4503C102.68 18.4503 108.223 32.4902 99.8485 40.3229L53.3858 83.7811C48.5216 88.3307 40.9674 88.3442 36.087 83.8121C30.6903 78.8004 30.6811 70.2617 36.0671 65.2385L82.5919 21.8468Z" fill="#54C5F8"/>
<path d="M63.7318 109.856C58.4289 104.877 58.422 96.4575 63.7167 91.47C68.5622 86.9056 76.1198 86.89 80.9841 91.4342L99.7666 108.981C108.155 116.817 102.61 130.877 91.13 130.877C87.9126 130.877 84.816 129.651 82.4704 127.449L63.7318 109.856Z" fill="#065A9D"/>
<path d="M82.6976 73.6502C85.039 71.4574 88.1267 70.2373 91.3345 70.2373C102.793 70.2372 108.334 84.2639 99.9707 92.0954L80.9846 109.873C76.1216 114.427 68.5583 114.422 63.7015 109.861C58.3821 104.867 58.3875 96.4175 63.7132 91.4297L82.6976 73.6502Z" fill="#5AC7F8"/>
</svg>
