<svg xmlns="http://www.w3.org/2000/svg" xmlns:xlink="http://www.w3.org/1999/xlink" width="31" height="31" viewBox="0 0 31 31"><defs><radialGradient id="a" cx="0.5" cy="0.5" r="0.5" gradientTransform="matrix(1, 0, 0, -1, 0, 0.897)" gradientUnits="objectBoundingBox"><stop offset="0" stop-color="#fff" stop-opacity="0.102"/><stop offset="1" stop-color="#fff" stop-opacity="0"/></radialGradient></defs><g transform="translate(-3.91 -1.22)"><path d="M10.272,43.986,4.935,38.649A3.619,3.619,0,0,1,3.91,36.186a4.123,4.123,0,0,1,.411-1.436L9.247,24.49Z" transform="translate(0 -18.022)" fill="#01579b"/><path d="M46.48,7.582,41.143,2.245A3.676,3.676,0,0,0,38.886,1.22a3.785,3.785,0,0,0-1.846.411L27.19,6.557Z" transform="translate(-18.028 0)" fill="#40c4ff"/><path d="M40.771,108.271H53.7V102.73l-9.646-3.08-8.825,3.08Z" transform="translate(-24.247 -76.051)" fill="#40c4ff"/><path d="M27.18,40.953c0,1.631.2,2.031,1.015,2.846l.813.813H47.3L38.36,34.45,27.18,24.49Z" transform="translate(-17.933 -17.933)" fill="#29b6f6"/><path d="M43.6,24.48H27.18L47.5,44.6h5.541V32L46.47,25.5A3.488,3.488,0,0,0,43.6,24.48Z" transform="translate(-18.128 -17.926)" fill="#01579b"/><path d="M28.419,44a3.706,3.706,0,0,1-1.025-3.048V24.692l-.2-.2V40.953A3.169,3.169,0,0,0,28.419,44l.615.609h0Z" transform="translate(-17.976 -17.933)" fill="#fff" opacity="0.2"/><path d="M120.421,56.7V69.424H114.88l.2.206h5.541V56.9Z" transform="translate(-85.715 -42.892)" fill="#263238" opacity="0.2"/><path d="M46.48,25.515A3.59,3.59,0,0,0,43.4,24.49H27.19l.2.2H43.4a4.247,4.247,0,0,1,3.078.821Z" transform="translate(-18.028 -17.968)" fill="#fff" opacity="0.2"/><path d="M34.715,13.864,28.393,7.542l-5.3-5.3A3.653,3.653,0,0,0,20.847,1.22a3.762,3.762,0,0,0-1.835.408l-9.789,4.9-4.9,10.2a4.125,4.125,0,0,0-.408,1.427,3.611,3.611,0,0,0,1.019,2.448l4.886,4.852a5.888,5.888,0,0,0,.415.451l.2.2.611.611,5.3,5.3.2.2H29.407V26.711h5.506V14.067Z" transform="translate(-0.008 0)" opacity="0.2" fill="url(#a)"/></g></svg>