<svg xmlns="http://www.w3.org/2000/svg" xmlns:xlink="http://www.w3.org/1999/xlink" width="95.386" height="131.065" viewBox="0 0 95.386 131.065"><defs><linearGradient id="a" x1="-0.035" y1="0.17" x2="1.008" y2="0.929" gradientUnits="objectBoundingBox"><stop offset="0" stop-color="#fff" stop-opacity="0.102"/><stop offset="0.14" stop-color="#fff" stop-opacity="0.078"/><stop offset="0.61" stop-color="#fff" stop-opacity="0.02"/><stop offset="1" stop-color="#fff" stop-opacity="0"/></linearGradient></defs><g transform="translate(-23.781 -5.97)"><path d="M23.833,111.719,39.965,8.491a2.979,2.979,0,0,1,5.571-.946L62.22,38.662,68.87,26a2.979,2.979,0,0,1,5.273,0l45.023,85.718H23.833Z" fill="#ffa000"/><path d="M79.566,71.507,62.212,38.647,23.833,111.719Z" fill="#f57c00"/><path d="M119.167,111.719l-12.356-76.46a2.979,2.979,0,0,0-5.042-1.61L23.834,111.718,66.957,135.9a8.937,8.937,0,0,0,8.714,0l43.5-24.183Z" fill="#ffca28"/><path d="M106.811,35.258a2.979,2.979,0,0,0-5.042-1.61L86.3,49.156,74.136,26a2.979,2.979,0,0,0-5.273,0l-6.65,12.661L45.529,7.545a2.979,2.979,0,0,0-5.571.953L23.833,111.719h-.052l.052.06.424.209L101.746,34.41a2.979,2.979,0,0,1,5.05,1.609l12.252,75.775.119-.075-12.356-76.46ZM23.975,111.577,39.965,9.228a2.98,2.98,0,0,1,5.572-.953L62.22,39.392,68.87,26.73a2.979,2.979,0,0,1,5.273,0L86.06,49.395,23.974,111.577Z" fill="rgba(255,255,255,0.2)"/><path d="M75.671,135.172a8.937,8.937,0,0,1-8.714,0L23.938,111.056l-.1.663L66.957,135.9a8.937,8.937,0,0,0,8.714,0l43.5-24.176-.112-.685L75.671,135.173Z" fill="#a52714" opacity="0.2"/><path d="M106.687,35.274a2.966,2.966,0,0,0-5.025-1.608l-15.415,15.5L74.127,26.021a2.964,2.964,0,0,0-5.255,0L62.245,38.676,45.62,7.573a2.966,2.966,0,0,0-5.551.953L24,111.7l42.973,24.165a8.882,8.882,0,0,0,8.684,0L119,111.7,106.687,35.274Z" fill="url(#a)"/></g></svg>