<svg xmlns="http://www.w3.org/2000/svg" xmlns:xlink="http://www.w3.org/1999/xlink" width="31.333" height="38.778" viewBox="0 0 31.333 38.778"><defs><linearGradient id="a" x1="-496.354" y1="-382.418" x2="-496.354" y2="-382.416" gradientUnits="objectBoundingBox"><stop offset="0.2" stop-opacity="0.149"/><stop offset="0.85" stop-color="#616161" stop-opacity="0.012"/></linearGradient><linearGradient id="b" x1="-381.276" y1="-432.394" x2="-381.274" y2="-432.394" gradientUnits="objectBoundingBox"><stop offset="0.2" stop-opacity="0.549"/><stop offset="0.85" stop-color="#616161" stop-opacity="0.012"/></linearGradient></defs><g transform="translate(-2.304)"><path d="M8.276,25.359,2.3,19.387,21.695,0H33.637Zm25.359-7.468H21.693l-4.472,4.472,5.972,5.972Z" transform="translate(0)" fill="rgba(66,165,245,0.8)"/><path d="M11.536,23.507,16.01,27.98H27.952L17.509,17.537Z" transform="translate(5.685 10.798)" fill="#0d47a1"/><path d="M7.849,19.812l5.962-5.964,5.962,5.962-5.962,5.964Z" transform="translate(3.414 8.527)" fill="#42a5f5"/><path d="M11.539,23.5,17.5,17.539l.832.832-5.962,5.962Z" transform="translate(5.686 10.8)" fill="url(#a)"/><path d="M11.536,23.507l8.859-3.06-2.889-2.91Z" transform="translate(5.685 10.798)" fill="url(#b)"/></g></svg>