<svg xmlns="http://www.w3.org/2000/svg" width="40.557" height="40.557" viewBox="0 0 40.557 40.557"><path d="M39.79,18.47,22.082.764a2.618,2.618,0,0,0-3.7,0L14.715,4.439,19.38,9.1a3.106,3.106,0,0,1,3.932,3.956l4.492,4.5a3.1,3.1,0,1,1-1.866,1.763l-4.206-4.184V26.159a3.11,3.11,0,1,1-3.584.591,3.183,3.183,0,0,1,1.022-.686V14.93a3.111,3.111,0,0,1-1.683-4.073L12.9,6.253.76,18.388a2.63,2.63,0,0,0,0,3.7l17.71,17.7a2.611,2.611,0,0,0,3.694,0L39.79,22.166a2.61,2.61,0,0,0,0-3.7" transform="translate(0 0)" fill="#d34242"/></svg>