<svg xmlns="http://www.w3.org/2000/svg" width="31" height="31" viewBox="0 0 31 31"><path d="M17.75,2.25A15.7,15.7,0,0,0,2.25,18.144a15.864,15.864,0,0,0,10.6,15.078,1.215,1.215,0,0,0,.263.028.75.75,0,0,0,.8-.789c0-.381-.014-1.377-.021-2.706a7.086,7.086,0,0,1-1.564.187,3.6,3.6,0,0,1-3.66-2.318A4.2,4.2,0,0,0,6.942,25.3c-1.349-.948-.007-.976.1-.976h.007a3.332,3.332,0,0,1,2.373,1.647,3.043,3.043,0,0,0,2.74,1.737,4.356,4.356,0,0,0,1.771-.415,3.434,3.434,0,0,1,.983-2.124c-3.439-.4-7.058-1.765-7.058-7.854a6.221,6.221,0,0,1,1.592-4.263A5.851,5.851,0,0,1,9.6,8.844a1.29,1.29,0,0,1,.346-.035c.56,0,1.827.215,3.917,1.668a14.408,14.408,0,0,1,7.764,0c2.09-1.453,3.356-1.668,3.917-1.668a1.29,1.29,0,0,1,.346.035,5.851,5.851,0,0,1,.152,4.207,6.246,6.246,0,0,1,1.592,4.263c0,6.1-3.626,7.446-7.079,7.84A3.854,3.854,0,0,1,21.6,28.095c0,2.124-.021,3.84-.021,4.359a.746.746,0,0,0,.789.8,1.339,1.339,0,0,0,.277-.028,15.861,15.861,0,0,0,10.6-15.078A15.7,15.7,0,0,0,17.75,2.25Z" transform="translate(-2.25 -2.25)" fill="#f0f0f0"/></svg>