<svg xmlns="http://www.w3.org/2000/svg" width="28.018" height="29.458" viewBox="0 0 28.018 29.458"><g transform="translate(-73.138 -75.051)"><path d="M21.719,31.785a.75.75,0,0,1-.75-.75v-5.46c0-.214,0-.414.005-.59.016-1.113.021-1.413-.566-2a.75.75,0,0,1,.45-1.276c3.911-.419,7.909-1.77,7.909-8.614a6.393,6.393,0,0,0-1.816-4.469.75.75,0,0,1-.164-.787,5.761,5.761,0,0,0,.029-4.007,9.659,9.659,0,0,0-4.527,1.932.75.75,0,0,1-.605.1,18.478,18.478,0,0,0-9.293,0,.75.75,0,0,1-.605-.1A9.66,9.66,0,0,0,7.261,3.833,5.761,5.761,0,0,0,7.29,7.84a.75.75,0,0,1-.164.787A6.393,6.393,0,0,0,5.31,13.1c0,6.843,4,8.194,7.909,8.613a.75.75,0,0,1,.45,1.276c-.672.672-.717,1.286-.566,2.5a.75.75,0,0,1,.006.093v5.46a.75.75,0,0,1-1.5,0V25.621a4.734,4.734,0,0,1,.219-2.589,10.1,10.1,0,0,1-5.108-2.175,7.743,7.743,0,0,1-2.132-3.064,12.876,12.876,0,0,1-.778-4.7A7.881,7.881,0,0,1,5.735,7.925a7.251,7.251,0,0,1,.325-5.12.75.75,0,0,1,.487-.416c.2-.056,2.065-.462,5.793,1.944a19.987,19.987,0,0,1,9.4,0,12.942,12.942,0,0,1,4.111-1.875c.243-.053,1.476-.3,1.942.06a.75.75,0,0,1,.227.287,7.251,7.251,0,0,1,.325,5.12,7.881,7.881,0,0,1,1.925,5.17,12.878,12.878,0,0,1-.778,4.7,7.744,7.744,0,0,1-2.133,3.064,10.1,10.1,0,0,1-5.114,2.176,4.819,4.819,0,0,1,.231,1.973c0,.179-.005.365-.005.569v5.46A.75.75,0,0,1,21.719,31.785ZM4.813,27.217c-.648,0-1.083-.715-1.276-1.031A17.722,17.722,0,0,1,2.3,23.505a.75.75,0,0,1,.911-.99,3.452,3.452,0,0,1,1.97,1.71,4.021,4.021,0,0,1,.553,2,.961.961,0,0,1-.786.977A.9.9,0,0,1,4.813,27.217Z" transform="translate(70.888 72.724)" fill="#f4f4f4"/></g></svg>