<svg xmlns="http://www.w3.org/2000/svg" width="26.542" height="36" viewBox="0 0 26.542 36"><path d="M19.529,22a11.366,11.366,0,0,1,1.645-.879s-2.721.492-5.428.717a49.45,49.45,0,0,1-8.655.091c-4.226-.562,2.32-2.116,2.32-2.116A12.453,12.453,0,0,0,3.743,21.15C.052,22.936,12.884,23.752,19.529,22Zm-6-2.257c-1.336-3-5.843-5.639,0-10.252C20.813,3.741,17.075,0,17.075,0c1.512,5.941-5.316,7.741-7.784,11.433-1.68,2.524.823,5.231,4.233,8.311ZM21.582,7.355c.007,0-12.319,3.08-6.434,9.858,1.737,2-.457,3.8-.457,3.8s4.409-2.278,2.384-5.126c-1.891-2.658-3.34-3.98,4.507-8.529Zm-.429,19.02a.857.857,0,0,1-.141.183c9.021-2.37,5.7-8.36,1.392-6.841a1.219,1.219,0,0,0-.577.443,4.954,4.954,0,0,1,.773-.211c2.18-.457,5.309,2.918-1.448,6.427Zm3.316,4.38s1.02.837-1.118,1.491c-4.071,1.23-16.931,1.6-20.5.049-1.287-.555,1.125-1.336,1.884-1.5a5.1,5.1,0,0,1,1.245-.141c-1.427-1.005-9.232,1.976-3.966,2.827C16.372,35.817,28.2,32.435,24.469,30.755ZM8.75,27.844c-5.534,1.547,3.368,4.739,10.413,1.723a13.071,13.071,0,0,1-1.983-.97,20.577,20.577,0,0,1-7.453.316c-2.355-.267-.977-1.069-.977-1.069Zm12.642,6.834a53.3,53.3,0,0,1-16.4.253c0-.007.83.682,5.091.956,6.483.415,16.439-.232,16.671-3.3,0,0-.45,1.16-5.358,2.088ZM18.326,24.82a29.046,29.046,0,0,1-9.619.464c-2.355-.246-.816-1.385-.816-1.385-6.1,2.025,3.389,4.317,11.918,1.821a4.245,4.245,0,0,1-1.484-.9Z" transform="translate(-0.208)" fill="#db951b"/></svg>