<svg width="271" height="367" viewBox="0 0 271 367" fill="none" xmlns="http://www.w3.org/2000/svg">
<path d="M87.4298 283.241C87.4298 283.241 73.4503 291.371 97.3785 294.122C126.367 297.429 141.183 296.955 173.128 290.908C173.128 290.908 181.527 296.175 193.256 300.736C121.643 331.428 31.1814 298.958 87.4298 283.241ZM78.679 243.19C78.679 243.19 62.9997 254.796 86.9456 257.273C117.912 260.468 142.367 260.729 184.683 252.581C184.683 252.581 190.536 258.514 199.739 261.759C113.155 287.078 16.7148 263.756 78.679 243.19Z" fill="#5382A1"/>
<path d="M152.45 175.25C170.096 195.565 147.814 213.847 147.814 213.847C147.814 213.847 192.619 190.717 172.042 161.753C152.824 134.743 138.086 121.322 217.87 75.0503C217.87 75.0503 92.6356 106.328 152.45 175.25" fill="#F8981D"/>
<path d="M247.165 312.866C247.165 312.866 257.51 321.39 235.772 327.984C194.436 340.506 63.7266 344.288 27.4162 328.483C14.3635 322.805 38.841 314.925 46.5407 313.271C54.5707 311.53 59.1595 311.854 59.1595 311.854C44.6436 301.628 -34.6653 331.933 18.8745 340.612C164.885 364.291 285.038 329.949 247.165 312.866ZM94.1526 201.692C94.1526 201.692 27.6657 217.484 70.6079 223.219C88.7395 225.646 124.884 225.097 158.552 222.276C186.068 219.955 213.696 215.02 213.696 215.02C213.696 215.02 203.994 219.175 196.975 223.968C129.458 241.725 -0.97073 233.464 36.5781 215.301C68.3332 199.951 94.1526 201.692 94.1526 201.692V201.692ZM213.422 268.36C282.056 232.695 250.322 198.422 228.173 203.039C222.744 204.169 220.323 205.148 220.323 205.148C220.323 205.148 222.339 201.991 226.188 200.625C270.007 185.219 303.706 246.06 212.043 270.157C212.043 270.158 213.105 269.209 213.422 268.36" fill="#5382A1"/>
<path d="M172.042 0.333496C172.042 0.333496 210.052 38.3566 135.991 96.8254C76.6011 143.727 122.448 170.47 135.966 201.024C101.299 169.746 75.8587 142.212 92.9263 116.586C117.978 78.969 187.378 60.7309 172.042 0.333496Z" fill="#F8981D"/>
<path d="M100.896 365.002C166.776 369.22 267.942 362.663 270.338 331.49C270.338 331.49 265.732 343.307 215.892 352.692C159.662 363.274 90.3107 362.038 49.1777 355.257C49.1777 355.257 57.5982 362.226 100.896 365.002Z" fill="#5382A1"/>
</svg>
