<svg xmlns="http://www.w3.org/2000/svg" width="38.233" height="38.233" viewBox="0 0 38.233 38.233"><path d="M0,0H38.233V38.233H0Z" fill="none"/><path d="M25.057,3.149a5.967,5.967,0,0,1,4.252,1.657c.251-.071.5-.139.743-.206a19.119,19.119,0,0,0,3.455-1.188.75.75,0,0,1,1.1.666v0a.749.749,0,0,1-.029.2,28.249,28.249,0,0,1-2.129,4.782c-.305.591-.648,1.255-.738,1.489a22.8,22.8,0,0,1-.819,6.091,18.439,18.439,0,0,1-4.827,8.282A18.661,18.661,0,0,1,18.194,29.5a17.851,17.851,0,0,1-4.978.688A24.458,24.458,0,0,1,1.641,27.021a.75.75,0,0,1,.388-1.408c.162.006.325.009.485.009a14,14,0,0,0,7.495-2.35C6.57,21.5,4.322,19.1,3.319,16.108A13.046,13.046,0,0,1,3.24,8.653,15.5,15.5,0,0,1,4.532,5.285.75.75,0,0,1,5.8,5.216a14.276,14.276,0,0,0,11.385,6.06v-.839a7,7,0,0,1,4.661-6.661A9.2,9.2,0,0,1,25.057,3.149ZM29.082,6.4a.75.75,0,0,1-.561-.253,4.428,4.428,0,0,0-3.463-1.5,7.714,7.714,0,0,0-2.69.532,5.513,5.513,0,0,0-3.687,5.241s0,.007,0,.01v1.593a.75.75,0,0,1-.731.75c-.144,0-.289.006-.432.006a15.674,15.674,0,0,1-7.3-1.759,15.776,15.776,0,0,1-4.87-3.937,15.542,15.542,0,0,0-.666,1.995,11.681,11.681,0,0,0,.066,6.563c.981,2.913,3.374,5.217,7.113,6.846a.75.75,0,0,1,.116,1.312A22.242,22.242,0,0,1,7.5,26.185a14.53,14.53,0,0,1-2.621.73,21.8,21.8,0,0,0,8.334,1.771,16.352,16.352,0,0,0,4.56-.628A16.782,16.782,0,0,0,29.451,16.243a21.291,21.291,0,0,0,.764-5.772c0-.311.135-.6.906-2.095.46-.891,1.027-1.989,1.454-2.962-.719.249-1.43.443-2.126.634-.378.1-.769.21-1.154.324A.749.749,0,0,1,29.082,6.4Z" transform="translate(1.186 2.313)" fill="#f4f4f4"/></svg>