<svg xmlns="http://www.w3.org/2000/svg" width="33.722" height="33.527" viewBox="0 0 33.722 33.527"><g transform="translate(0.156 -0.66)"><path d="M32.373,4.214,25.429.87a2.1,2.1,0,0,0-2.4.407L.3,22a1.4,1.4,0,0,0,0,2.077L2.16,25.768a1.4,1.4,0,0,0,1.793.08L31.328,5.081a1.4,1.4,0,0,1,2.237,1.111V6.111A2.106,2.106,0,0,0,32.373,4.214Z" transform="translate(0 -0.002)" fill="#0065a9"/><g transform="translate(-0.156 8.716)"><path d="M32.373,83.775l-6.944,3.343a2.1,2.1,0,0,1-2.4-.407L.3,65.986a1.4,1.4,0,0,1,0-2.077L2.16,62.221a1.4,1.4,0,0,1,1.793-.08L31.328,82.908A1.4,1.4,0,0,0,33.565,81.8v.081A2.106,2.106,0,0,1,32.373,83.775Z" transform="translate(0.156 -61.856)" fill="#007acc"/></g><g transform="translate(23.034 0.66)"><path d="M178.4,33.98a2.1,2.1,0,0,1-2.4-.408,1.234,1.234,0,0,0,2.106-.873V2.148A1.234,1.234,0,0,0,176,1.275a2.1,2.1,0,0,1,2.4-.408l6.943,3.339a2.106,2.106,0,0,1,1.193,1.9V28.743a2.106,2.106,0,0,1-1.193,1.9Z" transform="translate(-176 -0.66)" fill="#1f9cf0"/></g><g transform="translate(-0.156 0.66)" opacity="0.25"><path d="M23.742,34.044a2.1,2.1,0,0,0,1.672-.064l6.938-3.339a2.106,2.106,0,0,0,1.193-1.9V6.1a2.106,2.106,0,0,0-1.193-1.9L25.414.868a2.1,2.1,0,0,0-2.394.408L9.737,13.393,3.951,9a1.4,1.4,0,0,0-1.792.08L.3,10.769a1.4,1.4,0,0,0,0,2.077l5.018,4.578L.3,22a1.4,1.4,0,0,0,0,2.077l1.856,1.688a1.4,1.4,0,0,0,1.792.08l5.786-4.392L23.02,33.572A2.1,2.1,0,0,0,23.742,34.044ZM25.125,9.773,15.046,17.424l10.079,7.651Z" transform="translate(0.156 -0.66)" fill="#fff" fill-rule="evenodd"/></g></g></svg>